<svg width="1920" height="1080" viewBox="0 0 1920 1080" xmlns="http://www.w3.org/2000/svg"><path d="M1920,1080C1633,1089,289.6666666666667,1080.5,0,1080C-289.6666666666667,1079.5,119,1080.8333333333333,182,1077C245,1073.1666666666667,313.6666666666667,1072,378,1057C442.3333333333333,1042,504.6666666666667,995,568,987C631.3333333333334,979,693.8333333333334,1005,758,1009C822.1666666666666,1013,887.8333333333334,1000.1666666666666,953,1011C1018.1666666666666,1021.8333333333334,1084.5,1078.1666666666667,1149,1074C1213.5,1069.8333333333333,1275.6666666666667,993.5,1340,986C1404.3333333333333,978.5,1471.3333333333333,1022.3333333333334,1535,1029C1598.6666666666667,1035.6666666666667,1657.8333333333333,1017.5,1722,1026C1786.1666666666667,1034.5,2207,1071,1920,1080C1633,1089,289.6666666666667,1080.5,0,1080" fill="#000000"/></svg>